<?xml version="1.0" encoding="UTF-8"?>
<svg id="Layer_1" xmlns="http://www.w3.org/2000/svg" version="1.1" viewBox="0 0 557.31 210">
  <!-- Generator: Adobe Illustrator 30.6.0, SVG Export Plug-In . SVG Version: 2.1.4 Build 109)  -->
  <defs>
    <style>
      .st0 {
        fill: #fff;
      }
    </style>
  </defs>
  <path class="st0" d="M0,0h59.02c-8.28,26.03-12.26,53.24-11.77,80.55.7,4.58-.54,13.46,6.78,12.22,2.83-3.42,2.4-8.08,3.18-12.28,2.94-27.98,10.76-55.22,23.1-80.5h23.1c-34.57,64.37-33.84,145.87,1,210H0V0Z"/>
  <path class="st0" d="M134.18,0h75.14v210h-28.94c-23.29-25.77-38.02-57.97-46.82-91.27l-4.66-1.86c2.07,33.03,12.3,65.02,29.78,93.13h-24.23c-35.54-64.02-35.38-145.84-.27-210Z"/>
  <path class="st0" d="M283.37,55.87h24.88v41.25c10.53-13.65,20.68-27.52,30.99-41.25h30.21c-12.6,15.37-25.42,30.56-38.07,45.77,13.3,17.53,26.92,34.84,40.14,52.39h-29.88c-8.72-12.44-17.42-24.9-25.95-37.45-2.53,2.91-5.04,5.83-7.54,8.78.22,9.56,0,19.12,0,28.67h-24.88l.11-98.16Z"/>
  <path class="st0" d="M373.07,55.84h27.87c8.75,23.85,16.15,48.17,24.96,71.97,8.43-23.93,16.34-48.06,24.82-71.99h27.89c-12.2,32.79-24.82,65.34-37.07,98.24h-31.5c-12.33-32.7-24.65-65.44-36.97-98.22Z"/>
  <path class="st0" d="M485.26,55.89h72.05v21.54h-47.12v16.15h45.77v21.54h-45.77v39.04h-24.88c-.02-32.77-.04-65.53-.05-98.27Z"/>
</svg>